<svg xmlns="http://www.w3.org/2000/svg" xmlns:xlink="http://www.w3.org/1999/xlink" id="Layer_1" x="0" y="0" version="1.1" viewBox="0 0 612 792" xml:space="preserve" style="enable-background:new 0 0 612 792"><style type="text/css">.st0{fill:none}.st0,.st1{stroke:#000;stroke-width:10;stroke-miterlimit:10}</style><path id="XMLID_9_" d="M447.5,388h-297c-6.6,0-12-5.4-12-12v-90c0-6.6,5.4-12,12-12h297c6.6,0,12,5.4,12,12v90	C459.5,382.6,454.1,388,447.5,388z" class="st0"/><path id="XMLID_8_" d="M430.5,362h-262c-5.8,0-10.5-4.7-10.5-10.5l0,0c0-5.8,4.7-10.5,10.5-10.5h262	c5.8,0,10.5,4.7,10.5,10.5l0,0C441,357.3,436.3,362,430.5,362z" class="st0"/><path id="XMLID_7_" d="M416,312.5h-26c-3.3,0-6-2.7-6-6v-5c0-3.3,2.7-6,6-6h26c3.3,0,6,2.7,6,6v5	C422,309.8,419.3,312.5,416,312.5z" class="st1"/><path id="XMLID_6_" d="M365,312.5h-26c-3.3,0-6-2.7-6-6v-5c0-3.3,2.7-6,6-6h26c3.3,0,6,2.7,6,6v5	C371,309.8,368.3,312.5,365,312.5z" class="st1"/><path id="XMLID_5_" d="M187,406.9c0,43.5-18.8,78.6-42,78.6" class="st0"/><path id="XMLID_4_" d="M403.3,406.9c-8.3,20.2,21.8,73.6,48.7,73.6" class="st0"/><line id="XMLID_3_" x1="403" x2="403" y1="412.7" y2="412.7" class="st0"/><line id="XMLID_2_" x1="297.1" x2="295.9" y1="412.7" y2="485.5" class="st0"/></svg>